<svg width="220" height="64" viewBox="0 0 220 64" fill="none" xmlns="http://www.w3.org/2000/svg">
  <defs>
    <linearGradient id="feeloraMark" x1="10" y1="8" x2="54" y2="54" gradientUnits="userSpaceOnUse">
      <stop offset="0" stop-color="#C59BFF"/>
      <stop offset="0.55" stop-color="#8D6BFF"/>
      <stop offset="1" stop-color="#4AD4C6"/>
    </linearGradient>
    <linearGradient id="feeloraGlow" x1="17" y1="4" x2="49" y2="28" gradientUnits="userSpaceOnUse">
      <stop offset="0" stop-color="#F7E7FF" stop-opacity="0.95"/>
      <stop offset="1" stop-color="#FFFFFF" stop-opacity="0.05"/>
    </linearGradient>
  </defs>

  <g filter="url(#shadow)">
    <path d="M31.306 52.723C28.612 47.579 24.04 42.771 18.576 38.742C13.566 35.046 10 29.714 10 23.421C10 14.905 16.904 8 25.42 8C30.948 8 35.795 10.906 38.515 15.272C41.234 10.906 46.081 8 51.609 8C60.125 8 67.03 14.905 67.03 23.421C67.03 29.714 63.464 35.046 58.454 38.742C52.989 42.771 48.418 47.579 45.724 52.723L38.515 56L31.306 52.723Z" fill="url(#feeloraMark)"/>
    <path d="M39.53 18C47.454 18.553 53.818 25.145 53.818 33.206C53.818 39.813 49.543 45.421 43.601 47.407C44.262 44.611 45.81 41.335 48.101 37.595C51.527 32.003 52.794 28.6 52.794 24.967C52.794 21.545 51.186 18.427 48.671 16.428C46.382 14.608 43.345 13.645 40.06 13.645C39.877 13.645 39.695 13.647 39.514 13.653L39.53 18Z" fill="url(#feeloraGlow)" fill-opacity="0.95"/>
    <path d="M24.048 14.221C19.084 14.906 15.212 19.152 15.212 24.305C15.212 28.486 17.764 32.099 21.785 35.206C25.171 37.824 28.518 40.966 31.161 44.582C29.226 38.157 25.732 32.794 21.906 28.325C19.582 25.611 18.424 23.367 18.424 20.988C18.424 18.375 20.708 15.955 24.048 14.221Z" fill="#E9D6FF" fill-opacity="0.58"/>
    <circle cx="56.5" cy="10.5" r="4.5" fill="#C59BFF"/>
    <circle cx="47.5" cy="5.5" r="3.5" fill="#AEB5FF"/>
    <circle cx="61.5" cy="18.5" r="2.5" fill="#81E0D8"/>
  </g>

  <path d="M89.368 45V19.545H106.075V24.24H95.078V30.04H105.003V34.734H95.078V45H89.368ZM109.346 45V26.455H114.886V45H109.346ZM112.132 24.07C111.239 24.07 110.47 23.773 109.825 23.18C109.188 22.578 108.87 21.86 108.87 21.025C108.87 20.198 109.188 19.484 109.825 18.882C110.47 18.281 111.239 17.98 112.132 17.98C113.024 17.98 113.789 18.281 114.426 18.882C115.072 19.484 115.395 20.198 115.395 21.025C115.395 21.86 115.072 22.578 114.426 23.18C113.789 23.773 113.024 24.07 112.132 24.07ZM126.695 45.368C124.803 45.368 123.174 44.983 121.808 44.213C120.45 43.434 119.404 42.333 118.67 40.91C117.945 39.478 117.582 37.788 117.582 35.84C117.582 33.942 117.949 32.272 118.683 30.83C119.418 29.389 120.451 28.267 121.783 27.465C123.124 26.663 124.697 26.262 126.503 26.262C127.721 26.262 128.856 26.459 129.909 26.852C130.969 27.237 131.893 27.817 132.683 28.593C133.484 29.369 134.106 30.347 134.551 31.527C134.996 32.699 135.218 34.072 135.218 35.644V37.168H119.795V33.738H130.005C129.997 32.942 129.825 32.234 129.491 31.613C129.156 30.992 128.69 30.505 128.091 30.151C127.503 29.796 126.815 29.619 126.028 29.619C125.211 29.619 124.485 29.808 123.849 30.188C123.22 30.559 122.729 31.061 122.375 31.694C122.021 32.318 121.837 33.013 121.825 33.779V37.181C121.825 38.166 122.005 39.018 122.364 39.738C122.731 40.459 123.249 41.016 123.917 41.41C124.585 41.803 125.377 42 126.293 42C126.901 42 127.458 41.914 127.965 41.742C128.472 41.57 128.905 41.311 129.265 40.967C129.624 40.623 129.897 40.201 130.083 39.701L135.205 40.041C134.951 41.246 134.428 42.299 133.635 43.201C132.851 44.094 131.837 44.791 130.595 45.294C129.362 45.778 128.062 46.02 126.695 46.02V45.368ZM148.147 45.356C146.853 45.356 145.679 45.025 144.625 44.365C143.58 43.697 142.748 42.693 142.128 41.353C141.518 40.002 141.212 38.305 141.212 36.261C141.212 34.161 141.53 32.442 142.166 31.103C142.801 29.763 143.645 28.775 144.698 28.139C145.752 27.503 146.905 27.185 148.159 27.185C149.116 27.185 149.914 27.348 150.554 27.674C151.202 27.989 151.721 28.385 152.109 28.865C152.507 29.335 152.809 29.799 153.013 30.255H153.182V19.545H158.734V45H153.242V42.056H153.013C152.785 42.528 152.466 42.991 152.055 43.445C151.652 43.89 151.124 44.258 150.47 44.548C149.824 44.818 149.049 44.954 148.147 44.954V45.356ZM149.911 40.929C150.673 40.929 151.321 40.721 151.853 40.304C152.394 39.876 152.809 39.277 153.097 38.507C153.394 37.731 153.543 36.822 153.543 35.78C153.543 34.739 153.398 33.834 153.109 33.066C152.821 32.298 152.41 31.703 151.877 31.284C151.345 30.866 150.693 30.656 149.923 30.656C149.138 30.656 148.478 30.87 147.946 31.296C147.414 31.723 147.011 32.322 146.738 33.09C146.465 33.859 146.329 34.756 146.329 35.78C146.329 36.814 146.465 37.723 146.738 38.507C147.019 39.284 147.426 39.888 147.958 40.316C148.499 40.724 149.15 40.929 149.911 40.929ZM171.36 45.368C169.468 45.368 167.838 44.983 166.473 44.213C165.115 43.434 164.069 42.333 163.335 40.91C162.61 39.478 162.247 37.788 162.247 35.84C162.247 33.942 162.614 32.272 163.348 30.83C164.083 29.389 165.116 28.267 166.448 27.465C167.789 26.663 169.362 26.262 171.168 26.262C172.386 26.262 173.521 26.459 174.574 26.852C175.634 27.237 176.558 27.817 177.348 28.593C178.149 29.369 178.771 30.347 179.216 31.527C179.661 32.699 179.883 34.072 179.883 35.644V37.168H164.46V33.738H174.67C174.662 32.942 174.49 32.234 174.156 31.613C173.821 30.992 173.355 30.505 172.756 30.151C172.168 29.796 171.48 29.619 170.693 29.619C169.876 29.619 169.15 29.808 168.514 30.188C167.885 30.559 167.394 31.061 167.04 31.694C166.686 32.318 166.502 33.013 166.49 33.779V37.181C166.49 38.166 166.67 39.018 167.029 39.738C167.396 40.459 167.914 41.016 168.582 41.41C169.25 41.803 170.042 42 170.958 42C171.566 42 172.123 41.914 172.63 41.742C173.137 41.57 173.57 41.311 173.93 40.967C174.289 40.623 174.562 40.201 174.748 39.701L179.87 40.041C179.616 41.246 179.093 42.299 178.3 43.201C177.516 44.094 176.502 44.791 175.26 45.294C174.027 45.778 172.727 46.02 171.36 46.02V45.368ZM183.225 45V26.455H188.595V29.69H188.791C189.127 28.541 189.692 27.673 190.488 27.086C191.284 26.489 192.202 26.19 193.243 26.19C193.5 26.19 193.777 26.205 194.074 26.238C194.371 26.271 194.631 26.316 194.854 26.373V31.284C194.616 31.211 194.287 31.147 193.864 31.091C193.44 31.034 193.053 31.005 192.702 31.005C191.942 31.005 191.262 31.171 190.659 31.503C190.065 31.825 189.594 32.277 189.245 32.858C188.905 33.438 188.735 34.108 188.735 34.868V45H183.225ZM202.901 45.356C201.718 45.356 200.664 45.151 199.74 44.743C198.815 44.324 198.084 43.708 197.548 42.895C197.02 42.074 196.756 41.058 196.756 39.846C196.756 38.825 196.944 37.967 197.32 37.272C197.696 36.578 198.209 36.019 198.86 35.595C199.512 35.172 200.251 34.85 201.078 34.629C201.914 34.408 202.79 34.25 203.707 34.153C204.782 34.04 205.648 33.935 206.307 33.839C206.967 33.733 207.445 33.578 207.74 33.375C208.036 33.171 208.184 32.868 208.184 32.468V32.395C208.184 31.622 207.94 31.023 207.451 30.598C206.971 30.174 206.287 29.962 205.4 29.962C204.462 29.962 203.718 30.169 203.167 30.585C202.617 30.993 202.254 31.506 202.079 32.126L196.975 31.715C197.237 30.496 197.752 29.442 198.52 28.555C199.287 27.66 200.276 26.972 201.488 26.492C202.708 26.004 204.122 25.759 205.728 25.759C206.848 25.759 207.92 25.89 208.945 26.153C209.977 26.416 210.89 26.823 211.682 27.375C212.482 27.927 213.114 28.637 213.58 29.506C214.045 30.366 214.278 31.398 214.278 32.601V45H209.051V42.456H208.904C208.584 43.076 208.157 43.624 207.623 44.103C207.09 44.573 206.451 44.943 205.706 45.21C204.962 45.476 204.027 45.609 202.901 45.609V45.356ZM204.48 41.553C205.245 41.553 205.921 41.402 206.509 41.101C207.097 40.789 207.558 40.369 207.891 39.84C208.224 39.311 208.391 38.711 208.391 38.041V36.09C208.218 36.203 207.981 36.306 207.679 36.398C207.386 36.49 207.057 36.576 206.692 36.656C206.328 36.729 205.964 36.797 205.602 36.861C205.239 36.917 204.91 36.97 204.614 37.021C203.979 37.113 203.424 37.26 202.95 37.46C202.475 37.661 202.106 37.932 201.843 38.273C201.58 38.606 201.449 39.024 201.449 39.529C201.449 40.263 201.716 40.825 202.251 41.215C202.791 41.607 203.534 41.804 204.48 41.804V41.553Z" fill="white"/>
  <defs>
    <filter id="shadow" x="0" y="0" width="77.03" height="64" filterUnits="userSpaceOnUse" color-interpolation-filters="sRGB">
      <feFlood flood-opacity="0" result="BackgroundImageFix"/>
      <feColorMatrix in="SourceAlpha" type="matrix" values="0 0 0 0 0 0 0 0 0 0 0 0 0 0 0 0 0 0 127 0" result="hardAlpha"/>
      <feOffset dy="2"/>
      <feGaussianBlur stdDeviation="5"/>
      <feComposite in2="hardAlpha" operator="out"/>
      <feColorMatrix type="matrix" values="0 0 0 0 0.416667 0 0 0 0 0.317647 0 0 0 0 0.709804 0 0 0 0.35 0"/>
      <feBlend mode="normal" in2="BackgroundImageFix" result="effect1_dropShadow_1_2"/>
      <feBlend mode="normal" in="SourceGraphic" in2="effect1_dropShadow_1_2" result="shape"/>
    </filter>
  </defs>
</svg>
